# xmcd CD database file generated by LOLA_Freedb v0.9beta0
# 
# Track frame offsets:
#      150
#      13218
#      30153
#      43340
#      65875
#      82129
#      94099
#      106408
#      123096
#      147383
#      158251
#      181804
#      212731
#      228241
#      242796
# 
# Disc length: 3585 seconds
# 
# Revision: 0 
# Processed by: cddbd v1.5.2PL0 Copyright (c) Steve Scherf et al.
# Submitted via: LOLA_Freedb v0.9beta0
# 
DISCID=c60dff0f
DTITLE=Peter Driessen - Pick It Up
DYEAR=2007
DGENRE=
TTITLE0=Peter Driessen - Diving Duck
TTITLE1=Peter Driessen - I'll Pack My Things
TTITLE2=Peter Driessen - King Bee
TTITLE3=Peter Driessen - Bittersweet Woman
TTITLE4=Peter Driessen - You Gotta Move
TTITLE5=Peter Driessen - I Smile To Keep From Crying
TTITLE6=Peter Driessen - She Blew Me Up For Nothing
TTITLE7=Peter Driessen - I've Seen Some Things
TTITLE8=Peter Driessen - My Woman Is Weeping
TTITLE9=Peter Driessen - Big Little Woman
TTITLE10=Peter Driessen - I Hate To Sleep All By Myself
TTITLE11=Peter Driessen - Get Outta My Life, Woman
TTITLE12=Peter Driessen - Fool In Love
TTITLE13=Peter Driessen - Folks They're Talking
TTITLE14=Peter Driessen - White Is The Color Of My Blues
EXTD=
EXTT0=
EXTT1=
EXTT2=
EXTT3=
EXTT4=
EXTT5=
EXTT6=
EXTT7=
EXTT8=
EXTT9=
EXTT10=
EXTT11=
EXTT12=
EXTT13=
EXTT14=
PLAYORDER=
